<?xml version="1.0" encoding="utf-8"?><svg xmlns="http://www.w3.org/2000/svg" xmlns:xlink="http://www.w3.org/1999/xlink"><symbol viewBox="0 0 12 8" id="arrow" xmlns="http://www.w3.org/2000/svg"><path d="M11 1L6 7 .5 1"/></symbol><symbol viewBox="0 0 35 30" id="shop" xmlns="http://www.w3.org/2000/svg"><path fill-rule="evenodd" clip-rule="evenodd" d="M29.582.967H35V0h-6.187l-2.008 8.703H1.387A1 1 0 00.44 10.02l4.235 12.706h18.895l-.558 2.417-16.538.484v.967l17.307-.483L29.582.966zm-5.79 20.79H5.371L1.34 9.67h25.24l-2.789 12.088z"/><path d="M23.88 21.758l2.9-12.088H1.154l3.868 12.088H23.88z"/><path d="M11.535 16.548c0 1.27.217 2.213.65 2.83.434.617 1.112.926 2.034.926.91 0 1.584-.301 2.021-.903.438-.605.664-1.507.68-2.707v-1.447c0-1.254-.217-2.185-.65-2.795-.434-.61-1.114-.914-2.04-.914-.918 0-1.593.295-2.027.885-.433.586-.656 1.492-.668 2.719v1.406zm1.084-1.483c0-.917.129-1.585.387-2.003.258-.422.666-.633 1.224-.633.555 0 .96.209 1.213.627.254.418.385 1.06.393 1.927v1.735c0 .922-.133 1.603-.399 2.045-.269.437-.675.656-1.218.656-.535 0-.932-.207-1.19-.621-.261-.414-.398-1.067-.41-1.957v-1.776z"/><rect x="-.5" y=".5" width="2.868" height="2.868" rx="1.434" transform="matrix(-1 0 0 1 7.89 25.626)"/><rect x="-.5" y=".5" width="2.868" height="2.868" rx="1.434" transform="matrix(-1 0 0 1 23.363 25.626)"/></symbol><symbol viewBox="0 0 22 22" id="shop-box" xmlns="http://www.w3.org/2000/svg"/><symbol viewBox="0 0 10 19" id="tab1" xmlns="http://www.w3.org/2000/svg"/><symbol viewBox="0 0 21 21" id="tab2" xmlns="http://www.w3.org/2000/svg"><path d="M8.6 5.1c.5 5.1-.3 6.1-4.9 5.2-2.2-.4-2.7-.2-2.7 1.5 0 2.9 2 3.2 5.2.9 3.3-2.5 4.2-1.9 4 2.8-.2 4 1.4 5.4 3.6 3.1 1.5-1.4 1.4-1.7-.7-3.7-2.8-2.6-2.4-4 1.6-5.3C19.1 8.1 20 6.9 15.9 8c-5.2 1.5-5.5 1.3-6.7-3.3L8.1.5l.5 4.6zM4.5 12c.3.5-.1 1-.9 1-.9 0-1.6-.5-1.6-1 0-.6.4-1 .9-1 .6 0 1.3.4 1.6 1zm8.5 5c0 .5-.4 1-1 1-.5 0-1-.5-1-1 0-.6.5-1 1-1 .6 0 1 .4 1 1z"/></symbol><symbol viewBox="0 0 18 18" id="tab3" xmlns="http://www.w3.org/2000/svg"><path d="M11 5.5C9.7 6.9 9 8.3 9.3 8.7c.8.7 5.7-3.5 5.7-4.9 0-1.5-1.6-.8-4 1.7zM4.6 11.9c-1.5 1.6-2.3 3.1-1.8 3.5.5.3 2.1-.8 3.6-2.3 1.5-1.6 2.3-3.1 1.8-3.5-.5-.3-2.1.8-3.6 2.3z"/></symbol><symbol viewBox="0 0 30 31" id="tab4" xmlns="http://www.w3.org/2000/svg"/></svg>